<?xml version="1.0" encoding="utf-8"?><!DOCTYPE svg PUBLIC "-//W3C//DTD SVG 1.1//EN" "http://www.w3.org/Graphics/SVG/1.1/DTD/svg11.dtd"><svg viewBox="0 0 24 24" xmlns="http://www.w3.org/2000/svg" xmlns:xlink="http://www.w3.org/1999/xlink"><style>:root>svg{display:none}:root>svg:target{display:block}</style><svg baseProfile="full" viewBox="0 0 24.00 24.00" enable-background="new 0 0 24.00 24.00" id="_menu"><path stroke-width=".2" stroke-linejoin="round" d="M3 6h18v2H3V6zm0 5h18v2H3v-2zm0 5h18v2H3v-2z"/></svg><svg baseProfile="full" viewBox="0 0 24.00 24.00" enable-background="new 0 0 24.00 24.00" id="account"><path stroke-width=".2" stroke-linejoin="round" d="M12 4c2.21 0 4 1.79 4 4s-1.79 4-4 4-4-1.79-4-4 1.79-4 4-4zm0 10c4.418 0 8 1.79 8 4v2H4v-2c0-2.21 3.582-4 8-4z"/></svg><svg baseProfile="full" viewBox="0 0 24.00 24.00" enable-background="new 0 0 24.00 24.00" id="account-circle"><path stroke-width=".2" stroke-linejoin="round" d="M12 19.198c-2.505 0-4.708-1.28-6-3.22.027-1.987 4.005-3.08 6-3.08 1.993 0 5.97 1.093 5.997 3.08-1.29 1.94-3.494 3.22-5.998 3.22zm0-14.2c1.655 0 3 1.344 3 3 0 1.658-1.345 3-3 3-1.657 0-3-1.342-3-3 0-1.656 1.343-3 3-3zm0-3c-5.524 0-10 4.476-10 10 0 5.523 4.476 10 10 10 5.522 0 10-4.477 10-10 0-5.524-4.478-10-10-10z"/></svg><svg viewBox="-293 385 24 24" enable-background="new -293 385 24 24" id="account-level-up"><path d="M-567.6 774.5l5 5h-3v2.3h-4v-2.3h-3l5-5zm2 8.3v2.2h-4v-2.2h4zm0 3v1.3h-4v-1.3h4zm-11.2.4c-2.3 0-6.8 1.1-6.8 3.4v1.7h13.6v-1.7c-.1-2.2-4.6-3.4-6.8-3.4zm0-1.7c1.9 0 3.4-1.5 3.4-3.4s-1.5-3.4-3.4-3.4-3.4 1.5-3.4 3.4 1.5 3.4 3.4 3.4zM-274 389.5l4.3 5h-2.6v2.3h-3.5v-2.3h-2.6l4.4-5zm1.7 8.3v2.2h-3.5v-2.2h3.5zm0 3v1.3h-3.5v-1.3h3.5zm-12.5.4c-2.3 0-6.8 1.1-6.8 3.4v1.7h13.6v-1.7c-.1-2.2-4.6-3.4-6.8-3.4zm0-1.7c1.9 0 3.4-1.5 3.4-3.4s-1.5-3.4-3.4-3.4-3.4 1.5-3.4 3.4 1.5 3.4 3.4 3.4z"/></svg><svg baseProfile="full" viewBox="0 0 24.00 24.00" enable-background="new 0 0 24.00 24.00" id="account-multiple"><path stroke-width=".2" stroke-linejoin="round" d="M16 12.998c-.29 0-.618.018-.966.054 1.16.837 1.965 1.963 1.965 3.446v2.5h6v-2.5c0-2.332-4.668-3.5-7-3.5zm-8 0c-2.335 0-7 1.168-7 3.5v2.5h14v-2.5c0-2.332-4.668-3.5-7-3.5zm0-2c1.656 0 2.99-1.344 2.99-3s-1.334-3-2.99-3c-1.658 0-3 1.344-3 3s1.342 3 3 3zm8 0c1.656 0 2.99-1.344 2.99-3s-1.334-3-2.99-3c-1.658 0-3 1.344-3 3s1.342 3 3 3z"/></svg><svg baseProfile="full" viewBox="0 0 24.00 24.00" enable-background="new 0 0 24.00 24.00" id="account-switch"><path stroke-linejoin="round" d="M16 9c2.333 0 7 1.168 7 3.5V15h-6v-2.5c0-1.483-.806-2.61-1.965-3.446L16 9zM8 9c2.333 0 7 1.168 7 3.5V15H1v-2.5C1 10.168 5.666 9 8 9zm0-2C6.343 7 5 5.656 5 4s1.343-3 3-3 2.99 1.344 2.99 3S9.657 7 8 7zm8 0c-1.657 0-3-1.344-3-3s1.343-3 3-3 2.99 1.344 2.99 3S17.657 7 16 7zm-7 9.75V19h6v-2.25L18.25 20 15 23.25V21H9v2.25L5.75 20 9 16.75z"/></svg><svg baseProfile="full" viewBox="0 0 24.00 24.00" enable-background="new 0 0 24.00 24.00" id="alert"><path stroke-linejoin="round" d="M13 14h-2v-4h2m0 8h-2v-2h2M1 21h22L12 2 1 21z"/></svg><svg baseProfile="full" viewBox="0 0 24.00 24.00" enable-background="new 0 0 24.00 24.00" id="arrow-down"><path stroke-width=".2" stroke-linejoin="round" d="M11 4h2v12.01l5.505-5.505 1.414 1.414L12 19.84l-7.92-7.92 1.415-1.415L11 16.01V4z"/></svg><svg baseProfile="full" viewBox="0 0 24.00 24.00" enable-background="new 0 0 24.00 24.00" id="arrow-left"><path stroke-width=".2" stroke-linejoin="round" d="M20 11v2H7.99l5.505 5.505-1.414 1.414L4.16 12l7.92-7.92 1.415 1.415L7.99 11H20z"/></svg><svg baseProfile="full" viewBox="0 0 24.00 24.00" enable-background="new 0 0 24.00 24.00" id="arrow-up"><path stroke-width=".2" stroke-linejoin="round" d="M13 20h-2V7.99l-5.505 5.505L4.08 12.08 12 4.16l7.92 7.92-1.415 1.415L13 7.99V20z"/></svg><svg baseProfile="full" viewBox="0 0 24.00 24.00" enable-background="new 0 0 24.00 24.00" id="backup-restore"><path stroke-linejoin="round" d="M12 3c-4.97 0-9 4.03-9 9H0l4 4 4-4H5c0-3.87 3.13-7 7-7s7 3.13 7 7-3.13 7-7 7c-1.51 0-2.91-.49-4.06-1.3l-1.42 1.44C8.04 20.3 9.94 21 12 21c4.97 0 9-4.03 9-9s-4.03-9-9-9zm2 9c0-1.1-.9-2-2-2s-2 .9-2 2 .9 2 2 2 2-.9 2-2z"/></svg><svg baseProfile="full" viewBox="0 0 24.00 24.00" enable-background="new 0 0 24.00 24.00" id="book-open-variant"><path stroke-width=".2" stroke-linejoin="round" d="M21 5c-1.11-.35-2.33-.5-3.5-.5-1.95 0-4.05.4-5.5 1.5-1.45-1.1-3.55-1.5-5.5-1.5-1.95 0-4.05.4-5.5 1.5v14.65c0 .25.25.5.5.5.1 0 .15-.05.25-.05C3.1 20.45 5.05 20 6.5 20c1.95 0 4.05.4 5.5 1.5 1.35-.85 3.8-1.5 5.5-1.5 1.65 0 3.35.3 4.75 1.05.1.05.15.05.25.05.25 0 .5-.25.5-.5V6c-.6-.45-1.25-.75-2-1m0 13.5c-1.1-.35-2.3-.5-3.5-.5-1.7 0-4.15.65-5.5 1.5V8c1.35-.85 3.8-1.5 5.5-1.5 1.2 0 2.4.15 3.5.5v11.5z"/></svg><svg baseProfile="full" viewBox="0 0 24.00 24.00" enable-background="new 0 0 24.00 24.00" id="chevron-down"><path stroke-width=".2" stroke-linejoin="round" d="M7.413 8.584L12 13.17l4.585-4.586L18 9.998l-6 6-6-6 1.413-1.414z"/></svg><svg baseProfile="full" viewBox="0 0 24.00 24.00" enable-background="new 0 0 24.00 24.00" id="chevron-right"><path stroke-width=".2" stroke-linejoin="round" d="M8.585 16.584l4.586-4.586-4.585-4.586L10 5.998l6 6-6 6-1.415-1.414z"/></svg><svg baseProfile="full" viewBox="0 0 24.00 24.00" enable-background="new 0 0 24.00 24.00" id="chevron-up"><path stroke-width=".2" stroke-linejoin="round" d="M7.414 15.412L12 10.826l4.585 4.586L18 13.998l-6-6-6 6 1.414 1.414z"/></svg><svg baseProfile="full" viewBox="0 0 24.00 24.00" enable-background="new 0 0 24.00 24.00" id="city"><path stroke-width=".2" stroke-linejoin="round" d="M19 14.998h-2v-2h2m0 6h-2v-2h2m-6-10h-2v-2h2m0 6h-2v-2h2m0 6h-2v-2h2m0 6h-2v-2h2m-6-6H5v-2h2m0 6H5v-2h2m0 6H5v-2h2m8-6v-6l-3-3-3 3v2H3v14h18v-10h-6z"/></svg><svg baseProfile="full" viewBox="0 0 24.00 24.00" enable-background="new 0 0 24.00 24.00" id="cloud-upload"><path stroke-width=".2" stroke-linejoin="round" d="M14 12.998v4h-4v-4H7l5-5 5 5m2.355-2.964c-.68-3.44-3.714-6.036-7.355-6.036-2.892 0-5.397 1.64-6.65 4.036C2.344 8.358 0 10.904 0 13.998c0 3.314 2.686 6 6 6h13c2.76 0 5-2.238 5-5 0-2.64-2.053-4.78-4.645-4.964z"/></svg><svg baseProfile="full" viewBox="0 0 24.00 24.00" enable-background="new 0 0 24.00 24.00" id="cog"><path stroke-width=".2" stroke-linejoin="round" d="M12 15.498c-1.934 0-3.5-1.567-3.5-3.5s1.566-3.5 3.5-3.5c1.932 0 3.5 1.567 3.5 3.5s-1.568 3.5-3.5 3.5zm7.428-2.524c.042-.32.07-.645.07-.976 0-.33-.028-.655-.07-.976l2.113-1.654c.19-.152.244-.422.12-.638l-2-3.464c-.125-.216-.387-.304-.613-.217l-2.49 1.002c-.515-.396-1.08-.73-1.69-.983l-.374-2.65c-.038-.24-.245-.422-.494-.422h-4c-.25 0-.457.183-.495.42L9.13 5.07c-.61.253-1.175.588-1.69.984L4.95 5.05c-.225-.088-.487 0-.61.216l-2 3.464c-.126.216-.07.486.117.638l2.112 1.654c-.043.32-.07.645-.07.976 0 .33.027.656.07.976l-2.113 1.653c-.188.153-.243.423-.118.64l2 3.463c.123.216.385.304.61.217l2.49-1.003c.516.396 1.08.73 1.69.983l.375 2.65c.038.238.244.42.494.42h4c.248 0 .455-.182.493-.42l.375-2.65c.608-.253 1.173-.587 1.69-.984l2.49 1.004c.225.087.487 0 .61-.217l2-3.464c.126-.216.07-.486-.117-.64l-2.112-1.652z"/></svg><svg baseProfile="full" viewBox="0 0 24.00 24.00" enable-background="new 0 0 24.00 24.00" id="comment-text-outline"><path stroke-width=".2" stroke-linejoin="round" d="M9 22c-.552 0-1-.448-1-1v-3H4c-1.105 0-2-.895-2-2l.01-12.002c0-1.105.885-2 1.99-2h16c1.103 0 2 .895 2 2v12c0 1.104-.897 2-2 2L13.903 18l-3.706 3.706c-.193.192-.444.29-.697.293H9zm1-6v3.075L13.075 16H20V4H4v12h6zM6 7h12v2H6V7zm0 4h9v2H6v-2z"/></svg><svg baseProfile="full" viewBox="0 0 24.00 24.00" enable-background="new 0 0 24.00 24.00" id="delete"><path stroke-linejoin="round" d="M19 4h-3.5l-1-1h-5l-1 1H5v2h14M6 19c0 1.1.9 2 2 2h8c1.1 0 2-.9 2-2V7H6v12z"/></svg><svg baseProfile="full" viewBox="0 0 24.00 24.00" enable-background="new 0 0 24.00 24.00" id="dots-vertical"><path stroke-width=".2" stroke-linejoin="round" d="M12 16c1.105 0 2 .895 2 2s-.895 2-2 2-2-.895-2-2 .895-2 2-2zm0-6c1.105 0 2 .895 2 2s-.895 2-2 2-2-.895-2-2 .895-2 2-2zm0-6c1.105 0 2 .895 2 2s-.895 2-2 2-2-.895-2-2 .895-2 2-2z"/></svg><svg baseProfile="full" viewBox="0 0 24.00 24.00" enable-background="new 0 0 24.00 24.00" id="download"><path stroke-width=".2" stroke-linejoin="round" d="M5 19.998h14v-2H5m14-9h-4v-6H9v6H5l7 7 7-7z"/></svg><svg baseProfile="full" viewBox="0 0 24.00 24.00" enable-background="new 0 0 24.00 24.00" id="email"><path stroke-width=".2" stroke-linejoin="round" d="M20 7.998l-8 5-8-5v-2l8 5 8-5m0-2H4c-1.106 0-1.99.895-1.99 2l-.01 12c0 1.104.894 2 2 2h16c1.103 0 2-.896 2-2v-12c0-1.105-.897-2-2-2z"/></svg><svg baseProfile="full" viewBox="0 0 24.00 24.00" enable-background="new 0 0 24.00 24.00" id="facebook"><path stroke-width=".2" stroke-linejoin="round" d="M17 2v4.002h-2c-.69 0-1 .81-1 1.5v2.5h3v4h-3v8L10 22v-7.998H7v-4h3v-4c0-2.21 1.79-4 4-4L17 2z"/></svg><svg baseProfile="full" viewBox="0 0 24.00 24.00" enable-background="new 0 0 24.00 24.00" id="file"><path stroke-width=".2" stroke-linejoin="round" d="M13 8.998v-5.5l5.5 5.5m-12.5-7c-1.106 0-1.99.896-1.99 2l-.01 16c0 1.104.885 2 1.99 2H18c1.103 0 2-.896 2-2v-12l-6-6H6z"/></svg><svg baseProfile="full" viewBox="0 0 24.00 24.00" enable-background="new 0 0 24.00 24.00" id="file-cloud"><path stroke-width=".2" stroke-linejoin="round" d="M13 8.998h5.5l-5.5-5.5v5.5zm-7-7h8l6 6v12c0 1.104-.897 2-2 2H5.99c-1.105 0-1.99-.896-1.99-2l.01-16c0-1.104.884-2 1.99-2zm9.678 13.02C15.338 13.298 13.82 12 12 12c-1.446 0-2.698.82-3.325 2.018C7.17 14.18 6 15.454 6 17c0 1.657 1.343 3 3 3h6.5c1.38 0 2.5-1.12 2.5-2.5 0-1.32-1.026-2.39-2.322-2.482z"/></svg><svg baseProfile="full" viewBox="0 0 24.00 24.00" enable-background="new 0 0 24.00 24.00" id="file-image"><path stroke-width=".2" stroke-linejoin="round" d="M13 8.998h5.5l-5.5-5.5v5.5zm-7-7h8l6 6v12c0 1.104-.897 2-2 2H5.99c-1.105 0-1.99-.896-1.99-2l.01-16c0-1.104.884-2 1.99-2zM6 20h12v-8l-4 4-2-2-6 6zM8 9c-1.105 0-2 .895-2 2s.895 2 2 2 2-.895 2-2-.895-2-2-2z"/></svg><svg baseProfile="full" viewBox="0 0 24.00 24.00" enable-background="new 0 0 24.00 24.00" id="file-pdf"><path stroke-width=".2" stroke-linejoin="round" d="M14 9h5.5L14 3.5V9zM7 2h8l6 6v12c0 1.104-.896 2-2 2H6.99C5.886 22 5 21.104 5 20l.01-16c0-1.104.885-2 1.99-2zm4.932 10.435c.41.905.932 1.645 1.524 2.154l.418.323c-.873.155-2.072.435-3.341.925l-.11.04.493-1.035c.45-.87.784-1.66 1.016-2.408zm6.475 3.813c.18-.18.276-.408.284-.662.027-.195-.016-.386-.122-.55-.293-.464-1.038-.688-2.277-.688l-1.297.074-.863-.585c-.637-.522-1.202-1.43-1.596-2.557l.035-.14c.335-1.33.636-2.937-.023-3.596-.162-.16-.373-.244-.607-.244l-.236-.002c-.377 0-.686.39-.795.776-.37 1.326-.15 2.054.22 3.265l.002.01c-.257.88-.575 1.9-1.087 2.925l-.952 1.805-.89.49c-1.228.753-1.776 1.59-1.882 2.118-.04.194-.025.366.054.54l.023.05.48.316.44.104c.812 0 1.73-.947 2.973-3.07l.184-.07c1.016-.33 2.303-.57 4.05-.75 1.006.51 2.217.74 2.983.74.43 0 .737-.106.9-.3zm-.395-.706l.075.106c-.01.098-.042.113-.09.13l-.034.006-.195.014c-.455 0-1.164-.19-1.902-.512.09-.1.16-.1.23-.1 1.395 0 1.805.25 1.916.356zM8.83 16.996c-.65 1.195-1.238 1.85-1.692 2.008.055-.388.5-1.044 1.215-1.693l.476-.314zm3.015-6.905c-.228-.9-.234-1.635-.067-2.05l.067-.118.148.05c.18.242.194.554.098 1.095l-.03.163-.16.823-.055.038z"/></svg><svg baseProfile="full" viewBox="0 0 24.00 24.00" enable-background="new 0 0 24.00 24.00" id="file-video"><path stroke-width=".2" stroke-linejoin="round" d="M13 8.998h5.5l-5.5-5.5v5.5zm-7-7h8l6 6v12c0 1.104-.897 2-2 2H5.99c-1.105 0-1.99-.896-1.99-2l.01-16c0-1.104.884-2 1.99-2zM17 19v-6l-3 2.2V13H7v6h7v-2.2l3 2.2z"/></svg><svg baseProfile="full" viewBox="0 0 24.00 24.00" enable-background="new 0 0 24.00 24.00" id="folder"><path stroke-width=".2" stroke-linejoin="round" d="M10 3.998H4c-1.106 0-1.99.896-1.99 2l-.01 12c0 1.104.894 2 2 2h16c1.103 0 2-.896 2-2v-10c0-1.104-.897-2-2-2h-8l-2-2z"/></svg><svg viewBox="-293 385 24 24" enable-background="new -293 385 24 24" id="folder-cloud"><path d="M-273 391h-8l-2-2h-6c-1.1 0-2 .9-2 2v12c0 1.1.9 2 2 2h16c1.1 0 2-.9 2-2v-10c0-1.1-.9-2-2-2zm-.7 12.2h-9.8c-1.3 0-2.3-1-2.3-2.3s1-2.3 2.3-2.3c.3 0 .6.1.8.1.3-1.8 1.9-3.2 3.7-3.2 2.1 0 3.8 1.7 3.8 3.8v.8h1.5c.8 0 1.5.7 1.5 1.5.1.9-.6 1.6-1.5 1.6z"/></svg><svg baseProfile="full" viewBox="0 0 24.00 24.00" enable-background="new 0 0 24.00 24.00" id="folder-move"><path stroke-width=".2" stroke-linejoin="round" d="M9 17.998v-3H5v-4h4v-3l5 5m6-7h-8l-2-2H4c-1.106 0-2 .896-2 2v12c0 1.104.894 2 2 2h16c1.103 0 2-.896 2-2v-10c0-1.104-.897-2-2-2z"/></svg><svg baseProfile="full" viewBox="0 0 24.00 24.00" enable-background="new 0 0 24.00 24.00" id="folder-plus"><path stroke-width=".2" stroke-linejoin="round" d="M10 3.998l2 2h8c1.103 0 2 .896 2 2v10c0 1.104-.897 2-2 2H4c-1.106 0-2-.896-2-2l.01-12c0-1.104.884-2 1.99-2h6zM15 9v3h-3v2h3v3h2v-3h3v-2h-3V9h-2z"/></svg><svg baseProfile="full" viewBox="0 0 24.00 24.00" enable-background="new 0 0 24.00 24.00" id="home"><path stroke-width=".2" stroke-linejoin="round" d="M10 19.998v-6h4v6h5v-8h3l-10-9-10 9h3v8h5z"/></svg><svg viewBox="-293 385 24 24" enable-background="new -293 385 24 24" id="lightning"><path d="M-285 401.9c-2.3 0-6.8 1.1-6.8 3.4v1.7h13.6v-1.7c0-2.3-4.5-3.4-6.8-3.4zm0-1.7c1.9 0 3.4-1.5 3.4-3.4s-1.5-3.4-3.4-3.4-3.4 1.5-3.4 3.4 1.6 3.4 3.4 3.4zm14-6.6h-2.5v-5.5l-4.1 7.8h2.5v6.3"/></svg><svg baseProfile="full" viewBox="0 0 24.00 24.00" enable-background="new 0 0 24.00 24.00" id="link-variant"><path stroke-linejoin="round" d="M10.586 13.414c.39.39.39 1.024 0 1.414-.39.39-1.024.39-1.414 0-1.953-1.952-1.953-5.118 0-7.07l3.535-3.536c1.953-1.953 5.12-1.953 7.07 0 1.954 1.953 1.954 5.118 0 7.07l-1.485 1.486c.01-.82-.126-1.64-.404-2.423l.476-.476c1.17-1.173 1.17-3.072 0-4.244-1.172-1.172-3.07-1.172-4.243 0l-3.534 3.536c-1.172 1.17-1.172 3.07 0 4.242zm2.828-4.242c.39-.39 1.024-.39 1.414 0 1.953 1.952 1.953 5.118 0 7.07l-3.535 3.536c-1.953 1.953-5.12 1.953-7.07 0-1.954-1.952-1.954-5.118 0-7.07l1.484-1.486c-.008.82.127 1.64.405 2.423l-.476.476c-1.172 1.173-1.172 3.072 0 4.244 1.172 1.17 3.07 1.17 4.243 0l3.534-3.536c1.172-1.17 1.172-3.07 0-4.242-.39-.39-.39-1.024 0-1.414z"/></svg><svg baseProfile="full" viewBox="0 0 24.00 24.00" enable-background="new 0 0 24.00 24.00" id="login"><path stroke-width=".2" stroke-linejoin="round" d="M10 17.25V14H3v-4h7V6.75L15.25 12 10 17.25zM8 2h9c1.105 0 2 .895 2 2v16c0 1.105-.895 2-2 2H8c-1.105 0-2-.895-2-2v-4h2v4h9V4H8v4H6V4c0-1.105.895-2 2-2z"/></svg><svg baseProfile="full" viewBox="0 0 24.00 24.00" enable-background="new 0 0 24.00 24.00" id="logout"><path stroke-width=".2" stroke-linejoin="round" d="M17 17.25V14h-7v-4h7V6.75L22.25 12 17 17.25zM13 2c1.105 0 2 .895 2 2v4h-2V4H4v16h9v-4h2v4c0 1.105-.895 2-2 2H4c-1.105 0-2-.895-2-2V4c0-1.105.895-2 2-2h9z"/></svg><svg baseProfile="full" viewBox="0 0 24.00 24.00" enable-background="new 0 0 24.00 24.00" id="magnify"><path stroke-width=".2" stroke-linejoin="round" d="M9.5 3C13.09 3 16 5.91 16 9.5c0 1.615-.59 3.092-1.564 4.23l.27.27h.794l5 5-1.5 1.5-5-5v-.793l-.27-.27C12.59 15.41 11.114 16 9.5 16 5.91 16 3 13.09 3 9.5S5.91 3 9.5 3zm0 2C7.015 5 5 7.015 5 9.5S7.015 14 9.5 14 14 11.985 14 9.5 11.985 5 9.5 5z"/></svg><svg baseProfile="full" viewBox="0 0 24.00 24.00" enable-background="new 0 0 24.00 24.00" id="minus"><path stroke-width=".2" stroke-linejoin="round" d="M19 12.998H5V11l14-.002v2z"/></svg><svg baseProfile="full" viewBox="0 0 24.00 24.00" enable-background="new 0 0 24.00 24.00" id="minus-box"><path stroke-width=".2" stroke-linejoin="round" d="M17 12.998H7v-2h10m2-8H5c-1.107 0-2 .896-2 2v14c0 1.104.893 2 2 2h14c1.102 0 2-.896 2-2v-14c0-1.104-.898-2-2-2z"/></svg><svg baseProfile="full" viewBox="0 0 24.00 24.00" enable-background="new 0 0 24.00 24.00" id="panorama"><path stroke-linejoin="round" d="M8.5 12.5l2.5 3.01L14.5 11l4.5 6H5m18 1V6c0-1.1-.9-2-2-2H3c-1.1 0-2 .9-2 2v12c0 1.1.9 2 2 2h18c1.1 0 2-.9 2-2z"/></svg><svg baseProfile="full" viewBox="0 0 24.00 24.00" enable-background="new 0 0 24.00 24.00" id="pencil"><path stroke-width=".2" stroke-linejoin="round" d="M20.706 7.04c.39-.39.39-1.023 0-1.413L18.37 3.29c-.39-.39-1.023-.39-1.414 0l-1.832 1.833 3.75 3.75M3 17.248v3.75h3.75L17.813 9.933l-3.75-3.75L3 17.248z"/></svg><svg baseProfile="full" viewBox="0 0 24.00 24.00" enable-background="new 0 0 24.00 24.00" id="plus"><path stroke-width=".2" stroke-linejoin="round" d="M19 12.998h-6v6h-2v-6H5v-2h6v-6h2v6h6v2z"/></svg><svg baseProfile="full" viewBox="0 0 24.00 24.00" enable-background="new 0 0 24.00 24.00" id="reddit"><path stroke-linejoin="round" d="M9 11.75c.69 0 1.25.56 1.25 1.25S9.69 14.25 9 14.25 7.75 13.69 7.75 13s.56-1.25 1.25-1.25zm6 0c.69 0 1.25.56 1.25 1.25s-.56 1.25-1.25 1.25-1.25-.56-1.25-1.25.56-1.25 1.25-1.25zM19 3c1.105 0 2 .895 2 2s-.895 2-2 2-2-.895-2-2.02l-3.443-.923-1.06 3.953c2.06.08 3.933.66 5.395 1.576C18.326 9.22 18.887 9 19.5 9c1.38 0 2.5 1.12 2.5 2.5 0 .86-.433 1.616-1.092 2.066L21 14.5c0 3.59-4.03 6.5-9 6.5s-9-2.91-9-6.5l.092-.934C2.432 13.116 2 12.36 2 11.5 2 10.12 3.12 9 4.5 9c.613 0 1.174.22 1.608.586 1.453-.91 3.312-1.488 5.354-1.575l1.258-4.695c.072-.267.346-.425.613-.354l3.927 1.053C17.604 3.408 18.254 3 19 3zm0 1c-.552 0-1 .448-1 1s.448 1 1 1 1-.448 1-1-.448-1-1-1zm-7 5c-4.418 0-8 2.462-8 5.5S7.582 20 12 20s8-2.462 8-5.5S16.418 9 12 9zm-7.5 1c-.828 0-1.5.672-1.5 1.5 0 .403.16.77.417 1.038C3.8 11.665 4.43 10.87 5.25 10.2c-.22-.127-.477-.2-.75-.2zM21 11.5c0-.828-.672-1.5-1.5-1.5-.273 0-.53.073-.75.2.82.67 1.45 1.465 1.833 2.338.258-.27.417-.635.417-1.038zM8.784 16.34c1.216.91 5.216.91 6.432 0 .226-.16.538-.104.697.122.158.227.103.538-.123.697-1.79 1.09-5.79 1.09-7.58 0-.226-.16-.28-.47-.123-.698.16-.226.47-.28.697-.122z"/></svg><svg baseProfile="full" viewBox="0 0 24.00 24.00" enable-background="new 0 0 24.00 24.00" id="remote"><path stroke-linejoin="round" d="M12 0C8.96 0 6.21 1.23 4.22 3.22l1.41 1.41C7.26 3.01 9.51 2 12 2s4.74 1.01 6.36 2.64l1.41-1.41C17.79 1.23 15.04 0 12 0zM7.05 6.05l1.41 1.41C9.37 6.56 10.62 6 12 6s2.63.56 3.54 1.46l1.41-1.41C15.68 4.78 13.93 4 12 4c-1.93 0-3.68.78-4.95 2.05zM12 15c-1.1 0-2-.9-2-2s.9-2 2-2 2 .9 2 2-.9 2-2 2zm3-6H9c-.55 0-1 .45-1 1v12c0 .55.45 1 1 1h6c.55 0 1-.45 1-1V10c0-.55-.45-1-1-1z"/></svg><svg baseProfile="full" viewBox="0 0 24.00 24.00" enable-background="new 0 0 24.00 24.00" id="responsive"><path stroke-width=".2" stroke-linejoin="round" d="M4 6v10l5 .002v-4c0-1.105.896-2 2-2h5c1.105 0 2 .895 2 2V16h2V6H4zM0 20v-2h4c-1.105 0-2-.896-2-2V6c0-1.104.895-2 2-2h16c1.104 0 2 .896 2 2l-.01 10c0 1.104-.886 2-1.99 2h4v2h-6v.002c0 1.105-.895 2-2 2h-5c-1.104 0-2-.895-2-2L0 20zm11.5.002c-.276 0-.5.224-.5.5s.224.5.5.5.5-.224.5-.5-.224-.5-.5-.5zm4 0c-.276 0-.5.224-.5.5s.224.5.5.5.5-.224.5-.5-.224-.5-.5-.5zm-2.5 0v1h1v-1h-1zm-2-8v7h5v-7h-5z"/></svg><svg baseProfile="full" viewBox="0 0 24.00 24.00" enable-background="new 0 0 24.00 24.00" id="server"><path stroke-width=".2" stroke-linejoin="round" d="M4 1h16c.552 0 1 .448 1 1v4c0 .552-.448 1-1 1H4c-.552 0-1-.448-1-1V2c0-.552.448-1 1-1zm0 8h16c.552 0 1 .448 1 1v4c0 .552-.448 1-1 1H4c-.552 0-1-.448-1-1v-4c0-.552.448-1 1-1zm0 8h16c.552 0 1 .448 1 1v4c0 .552-.448 1-1 1H4c-.552 0-1-.448-1-1v-4c0-.552.448-1 1-1zM9 5h1V3H9v2zm0 8h1v-2H9v2zm0 8h1v-2H9v2zM5 3v2h2V3H5zm0 8v2h2v-2H5zm0 8v2h2v-2H5z"/></svg><svg baseProfile="full" viewBox="0 0 24.00 24.00" enable-background="new 0 0 24.00 24.00" id="share"><path stroke-width=".2" stroke-linejoin="round" d="M21 10.998l-7-7v4c-7 1-10 6-11 11 2.5-3.5 6-5.1 11-5.1v4.1l7-7z"/></svg><svg baseProfile="full" viewBox="0 0 24.00 24.00" enable-background="new 0 0 24.00 24.00" id="trending-up"><path stroke-linejoin="round" d="M16 6l2.29 2.29-4.88 4.88-4-4L2 16.59 3.41 18l6-6 4 4 6.3-6.29L22 12V6h-6z"/></svg><svg baseProfile="full" viewBox="0 0 24.00 24.00" enable-background="new 0 0 24.00 24.00" id="twitch"><path stroke-linejoin="round" d="M4 2h18v12l-5 5h-4l-3 3H7v-3H2V6l2-4zm16 11V4H6v12h3v3l3-3h5l3-3zm-5-6h2v5h-2V7zm-3 0v5h-2V7h2z"/></svg><svg baseProfile="full" viewBox="0 0 24.00 24.00" enable-background="new 0 0 24.00 24.00" id="twitter"><path stroke-width=".2" stroke-linejoin="round" d="M22.46 6.012c-.77.342-1.598.572-2.466.676.886-.53 1.567-1.372 1.887-2.374-.828.492-1.746.85-2.724 1.04C18.373 4.522 17.258 4 16.023 4c-2.37 0-4.29 1.92-4.29 4.292 0 .336.037.663.11.978-3.567-.18-6.73-1.888-8.846-4.484-.37.633-.58 1.37-.58 2.157 0 1.49.757 2.803 1.908 3.572-.703-.022-1.365-.215-1.944-.537v.054c0 2.08 1.48 3.814 3.444 4.21-.36.097-.74.15-1.13.15-.278 0-.546-.028-.81-.078.548 1.705 2.133 2.946 4.01 2.98-1.468 1.152-3.32 1.838-5.33 1.838-.346 0-.687-.02-1.023-.06C3.44 20.29 5.697 21 8.12 21c7.893 0 12.21-6.54 12.21-12.21 0-.187-.004-.372-.012-.556.838-.605 1.566-1.36 2.14-2.222z"/></svg><svg baseProfile="full" viewBox="0 0 24.00 24.00" enable-background="new 0 0 24.00 24.00" id="upload"><path stroke-width=".2" stroke-linejoin="round" d="M9 15.998v-6H5l7-7 7 7h-4v6H9zm-4 4v-2h14v2H5z"/></svg><svg baseProfile="full" viewBox="0 0 24.00 24.00" enable-background="new 0 0 24.00 24.00" id="youtube-play"><path stroke-width=".2" stroke-linejoin="round" d="M10 16.498v-9l6 4.5m4-7.6c-.6-.197-4.3-.4-8-.4s-7.4.187-8 .384c-1.565.516-2 4.02-2 7.616s.435 7.1 2 7.616c.6.197 4.3.384 8 .384s7.4-.187 8-.384c1.563-.516 1.99-4.02 1.99-7.616s-.427-7.084-1.99-7.6z"/></svg></svg>