<?xml version="1.0" standalone="no"?>
<!DOCTYPE svg PUBLIC "-//W3C//DTD SVG 20010904//EN"
 "http://www.w3.org/TR/2001/REC-SVG-20010904/DTD/svg10.dtd">
<svg version="1.0" xmlns="http://www.w3.org/2000/svg"
 width="754.000000pt" height="754.000000pt" viewBox="0 0 754.000000 754.000000"
 preserveAspectRatio="xMidYMid meet">
<metadata>
Created by potrace 1.11, written by Peter Selinger 2001-2013
</metadata>
<g transform="translate(0.000000,754.000000) scale(0.100000,-0.100000)"
fill="#000000" stroke="none">
<path d="M3410 7481 c-14 -4 -51 -7 -82 -5 -32 1 -58 -2 -58 -6 0 -4 -23 -7
-50 -6 -28 1 -50 -1 -50 -4 0 -3 -17 -6 -38 -7 -38 -2 -98 -9 -142 -18 -14 -3
-44 -7 -68 -9 -23 -3 -50 -7 -60 -10 -19 -6 -71 -15 -115 -21 -16 -2 -34 -9
-42 -15 -8 -7 -15 -7 -19 -1 -4 6 -18 5 -39 -3 -17 -8 -40 -12 -49 -11 -10 2
-18 0 -18 -5 0 -5 -11 -7 -25 -5 -14 1 -28 -2 -31 -6 -3 -5 -15 -9 -28 -9 -12
0 -26 -3 -30 -7 -3 -4 -14 -8 -24 -9 -32 -5 -77 -16 -92 -21 -8 -4 -18 -7 -22
-8 -5 -2 -10 -4 -13 -5 -3 -1 -8 -3 -12 -4 -5 -1 -35 -10 -68 -21 -33 -10 -66
-17 -72 -16 -7 1 -13 -3 -13 -9 0 -5 -9 -10 -19 -10 -11 0 -22 -4 -26 -10 -3
-5 -12 -7 -20 -3 -8 3 -15 0 -15 -7 0 -7 -7 -10 -15 -6 -8 3 -15 1 -15 -4 0
-6 -8 -10 -18 -10 -10 0 -22 -3 -26 -7 -4 -5 -11 -8 -14 -8 -4 -1 -29 -11 -56
-23 -27 -12 -51 -22 -55 -22 -7 0 -229 -112 -308 -156 l-53 -29 0 -3172 c0
-1744 3 -3178 6 -3187 3 -9 15 -16 25 -16 10 0 19 -4 19 -10 0 -5 6 -10 14
-10 8 0 16 -3 18 -7 2 -5 56 -34 120 -66 65 -32 120 -62 123 -68 4 -5 11 -7
16 -3 5 3 21 -2 34 -10 14 -9 25 -14 25 -11 0 2 15 -3 33 -13 17 -10 51 -24
75 -32 23 -7 42 -17 42 -22 0 -5 4 -7 9 -4 4 3 37 -5 71 -19 34 -14 66 -22 71
-20 4 3 10 1 14 -5 4 -6 10 -8 15 -5 5 3 14 -1 22 -8 7 -7 20 -12 28 -12 8 1
21 -3 28 -8 6 -5 12 -6 12 -3 0 4 10 1 23 -6 12 -7 26 -11 31 -10 5 2 16 0 25
-4 18 -8 23 -9 66 -19 43 -9 60 -13 60 -15 0 -2 10 -4 70 -15 38 -6 69 -13 75
-15 3 -1 10 -3 15 -5 6 -1 12 -3 15 -4 7 -3 80 -12 113 -14 15 -1 27 -5 27 -9
0 -4 20 -8 43 -8 24 0 47 -3 51 -8 4 -4 20 -8 34 -9 94 -7 142 -12 151 -17 5
-3 35 -7 68 -7 32 -1 63 -4 68 -8 17 -10 150 -14 500 -14 363 0 462 3 484 17
10 7 12 6 6 -4 -6 -9 -4 -11 5 -5 8 5 34 10 59 11 25 1 46 3 46 4 0 1 16 3 35
6 19 2 53 7 75 10 22 3 54 6 70 8 17 2 37 6 45 9 8 3 38 9 65 12 28 3 61 8 75
11 14 3 39 7 57 9 18 2 41 9 53 15 15 8 20 8 20 -1 0 -8 5 -8 16 1 8 8 29 15
47 16 18 2 41 5 52 8 30 8 108 27 125 31 8 2 17 4 20 6 3 1 10 3 15 4 6 1 30
8 55 15 25 8 47 14 50 15 3 0 15 6 26 13 12 6 24 9 27 6 3 -3 12 -2 19 2 7 5
19 10 26 11 24 6 37 10 67 22 17 7 35 14 40 15 6 1 16 5 23 9 6 5 17 5 22 2 6
-3 10 -2 10 3 0 5 10 13 23 17 12 4 24 8 27 9 40 18 64 26 76 26 8 0 12 5 9
10 -3 6 2 10 12 10 11 0 24 5 31 12 7 7 12 9 12 5 0 -9 252 121 318 163 l22
15 0 3173 c0 3165 0 3174 -20 3179 -11 3 -20 9 -20 14 0 5 -7 9 -15 9 -8 0
-15 5 -15 11 0 5 -4 7 -10 4 -5 -3 -10 -2 -10 2 0 5 -16 15 -35 22 -19 7 -35
17 -35 23 0 5 -7 8 -15 4 -8 -3 -15 -1 -15 4 0 6 -6 10 -14 10 -7 0 -19 7 -26
15 -7 8 -21 15 -31 15 -11 0 -19 5 -19 11 0 5 -4 7 -10 4 -5 -3 -10 -1 -10 6
0 7 -3 9 -7 6 -3 -4 -17 0 -30 8 -13 9 -23 13 -23 9 0 -3 -10 0 -22 8 -13 8
-41 21 -63 28 -22 7 -42 16 -45 19 -3 4 -21 12 -40 18 -29 9 -189 63 -240 81
-20 7 -31 10 -55 16 -11 2 -41 12 -68 21 -26 9 -52 13 -57 10 -6 -3 -10 -2
-10 2 0 5 -12 10 -26 11 -14 1 -31 5 -37 9 -6 4 -20 8 -31 9 -12 2 -34 5 -51
9 -16 3 -42 7 -56 9 -14 1 -31 6 -38 10 -7 5 -28 8 -47 9 -19 1 -34 4 -34 7 0
3 -19 7 -41 7 -23 0 -44 5 -48 9 -3 5 -22 10 -41 11 -72 4 -105 9 -116 16 -6
3 -29 7 -50 7 -69 1 -74 1 -70 8 2 4 -19 8 -47 8 -29 1 -90 5 -137 9 -115 11
-759 15 -790 6z m600 -1246 c47 -6 81 -12 90 -15 3 -1 12 -3 20 -4 43 -5 140
-31 140 -38 0 -4 7 -5 15 -2 8 4 15 1 15 -6 0 -6 3 -9 8 -7 4 3 25 -3 46 -14
22 -10 45 -19 51 -19 6 0 17 -6 24 -12 6 -7 15 -13 19 -13 14 -1 125 -77 164
-113 42 -38 93 -90 116 -117 21 -25 112 -174 112 -183 0 -5 7 -23 15 -40 9
-17 18 -40 20 -52 2 -11 7 -25 10 -30 3 -5 8 -20 11 -32 3 -13 8 -34 11 -48 3
-14 6 -33 7 -42 0 -10 3 -18 6 -18 3 0 5 -12 6 -27 1 -16 4 -62 8 -103 9 -90
8 -208 0 -222 -4 -6 -7 -37 -6 -69 0 -33 -3 -59 -7 -59 -4 0 -8 -10 -9 -22 -3
-46 -12 -88 -26 -123 -8 -19 -12 -35 -9 -35 3 0 -2 -11 -11 -25 -9 -14 -14
-25 -11 -25 8 0 -45 -91 -90 -155 -24 -33 -78 -94 -120 -135 -43 -41 -108
-105 -145 -142 -68 -68 -118 -151 -122 -201 -1 -15 -6 -27 -11 -27 -4 0 -4 -7
1 -17 5 -9 6 -29 2 -44 -4 -15 -4 -31 1 -36 4 -4 10 -42 12 -84 2 -41 6 -79 9
-85 3 -5 6 -29 7 -54 1 -25 3 -69 4 -97 1 -29 4 -53 7 -53 7 0 11 -31 13 -92
1 -27 4 -48 8 -48 4 0 7 -25 8 -55 0 -31 3 -60 7 -66 7 -11 15 -89 17 -156 1
-24 5 -43 8 -43 4 0 9 -24 12 -52 3 -29 8 -78 12 -108 4 -30 7 -70 8 -87 0
-18 3 -33 7 -33 3 0 7 -15 8 -32 2 -18 5 -46 8 -63 2 -16 6 -48 8 -70 2 -22 6
-49 9 -60 4 -17 8 -46 23 -150 13 -97 17 -124 18 -152 0 -18 4 -33 7 -33 3 0
6 -6 6 -12 4 -53 8 -75 17 -87 9 -12 8 -13 -3 -6 -11 6 -12 5 -5 -6 5 -8 9
-23 10 -34 1 -11 7 -51 14 -90 7 -38 13 -81 14 -95 1 -14 4 -29 7 -35 3 -5 7
-28 8 -49 1 -22 4 -42 6 -46 5 -8 18 -103 19 -132 0 -10 4 -18 8 -18 4 0 8
-17 9 -37 0 -21 4 -47 8 -57 16 -41 -12 -83 -51 -77 -5 1 -8 -3 -8 -7 0 -5
-17 -16 -37 -25 -103 -44 -133 -56 -133 -50 0 3 -6 1 -12 -4 -11 -9 -53 -22
-75 -24 -5 0 -14 -5 -21 -11 -7 -6 -15 -8 -19 -5 -3 4 -13 2 -22 -2 -9 -5 -31
-12 -48 -15 -18 -3 -48 -9 -65 -13 -18 -4 -51 -7 -73 -7 -22 -1 -43 -5 -47
-11 -3 -5 -45 -10 -92 -10 -47 0 -86 -3 -86 -6 0 -11 -325 5 -388 19 -24 6
-54 9 -68 7 -13 -1 -27 2 -30 7 -3 4 -10 6 -15 2 -5 -3 -15 -1 -22 4 -7 6 -28
11 -47 13 -19 2 -39 5 -45 8 -11 6 -31 11 -57 15 -10 1 -21 5 -24 9 -4 4 -18
7 -30 7 -13 0 -26 5 -29 11 -4 6 -13 8 -21 5 -8 -3 -14 -1 -14 4 0 6 -3 9 -7
8 -5 -1 -24 4 -43 11 -19 8 -38 15 -42 16 -5 1 -10 4 -13 5 -3 1 -9 3 -14 4
-5 0 -13 4 -17 8 -4 5 -16 8 -26 8 -10 0 -18 4 -18 10 0 5 -11 12 -25 16 -30
7 -50 29 -35 39 6 4 7 12 0 24 -6 12 -5 22 2 29 6 6 12 26 14 44 6 64 24 170
32 182 5 9 9 45 14 136 2 25 7 48 11 51 4 3 10 28 13 55 9 87 12 108 23 164 6
30 13 73 15 95 2 22 4 40 6 40 1 0 3 14 5 30 1 17 8 62 15 100 6 39 12 87 13
108 1 20 4 37 7 37 4 0 7 12 7 28 0 15 4 50 8 77 4 28 9 61 10 75 2 14 4 25 5
25 1 0 4 16 5 35 2 19 6 53 9 75 3 22 8 63 12 90 3 28 7 57 8 65 1 8 4 20 7
25 3 6 5 29 5 53 -1 23 2 42 5 42 3 0 6 21 7 48 2 26 5 55 8 66 6 18 8 31 18
136 2 25 7 63 11 85 3 22 8 63 11 90 2 28 6 68 9 90 2 22 7 76 10 120 4 44 12
86 18 94 10 12 9 13 -3 6 -12 -6 -13 -5 -3 5 9 9 9 17 2 26 -7 8 -7 14 0 19 7
4 6 17 -3 40 -8 18 -12 36 -9 39 7 6 -38 99 -49 104 -5 2 -8 8 -8 13 0 9 -78
88 -196 200 -45 43 -81 83 -135 149 -12 14 -29 44 -40 67 -10 23 -24 45 -29
48 -6 4 -8 11 -5 16 4 5 0 12 -8 15 -9 3 -13 13 -10 25 3 11 0 19 -6 19 -7 0
-10 4 -6 9 3 5 1 12 -4 15 -4 3 -12 20 -16 38 -4 18 -9 40 -11 48 -2 8 -5 26
-8 40 -29 169 -33 248 -21 380 4 47 8 94 9 105 1 11 4 25 7 30 4 6 5 20 4 33
-1 12 2 22 7 22 4 0 7 3 6 8 -4 17 15 92 23 92 6 0 8 4 4 10 -7 11 84 210 97
210 4 0 8 5 8 11 0 17 83 117 103 124 10 4 16 9 13 12 -4 4 28 34 103 96 12 9
25 17 30 17 5 0 11 4 13 9 5 14 243 124 243 112 0 -1 14 3 30 10 17 6 39 13
50 15 59 11 73 14 105 19 19 3 48 8 63 10 16 2 30 5 32 7 6 5 358 0 405 -7z"/>
</g>
</svg>
